<svg xmlns="http://www.w3.org/2000/svg" version="1.1" xmlns:xlink="http://www.w3.org/1999/xlink" xmlns:svgjs="http://svgjs.com/svgjs" width="1440" height="560" preserveAspectRatio="none" viewBox="0 0 1440 560"><g mask="url(&quot;#SvgjsMask1008&quot;)" fill="none"><path d="M 0,239 C 57.6,202.6 172.8,72.2 288,57 C 403.2,41.8 460.8,149.4 576,163 C 691.2,176.6 748.8,104.2 864,125 C 979.2,145.8 1036.8,269.8 1152,267 C 1267.2,264.2 1382.4,142.2 1440,111L1440 560L0 560z" fill="#184a7e"></path><path d="M 0,344 C 96,382.8 288,535 480,538 C 672,541 768,356 960,359 C 1152,362 1344,514.2 1440,553L1440 560L0 560z" fill="rgba(41, 168, 254, 1)"></path></g><defs><mask id="SvgjsMask1008"><rect width="1440" height="560" fill="#ffffff"></rect></mask></defs></svg>